Battleship (2012) with Turkish subtitle.


General

Complete name :	D:UserProfilesDesktopBATTLESHIP (2012) TRBattleship (2012).avi
Format :	AVI
Format/Info :	Audio Video Interleave
File size :	934 MiB
Duration :	2h 5mn
Overall bit rate :	1 037 Kbps
Writing application :	VirtualDubMod 1.5.10.2 (build 2542/release)
Writing library :	VirtualDubMod build 2542/release

Video

ID :	0
Format :	MPEG-4 Visual
Format profile :	Advanced Simple@L5
Format settings, BVOP :	1
Format settings, QPel :	No
Format settings, GMC :	No warppoints
Format settings, Matrix :	Default (H.263)
Muxing mode :	Packed bitstream
Codec ID :	XVID
Codec ID/Hint :	XviD
Duration :	2h 5mn
Bit rate :	900 Kbps
Width :	720 pixels
Height :	480 pixels
Display aspect ratio :	3:2
Frame rate :	25.000 fps
Standard :	NTSC
Color space :	YUV
Chroma subsampling :	4:2:0
Bit depth :	8 bits
Scan type :	Progressive
Compression mode :	Lossy
Bits/(Pixel*Frame) :	0.104
Stream size :	810 MiB (87%)
Writing library :	XviD 1.1.2 (UTC 2006-11-01)

Audio

ID :	1
Format :	MPEG Audio
Format version :	Version 1
Format profile :	Layer 3
Mode :	Joint stereo
Mode extension :	MS Stereo
Codec ID :	55
Codec ID/Hint :	MP3
Duration :	2h 5mn
Bit rate mode :	Constant
Bit rate :	128 Kbps
Channel(s) :	2 channels
Sampling rate :	48.0 KHz
Compression mode :	Lossy
Stream size :	115 MiB (12%)
Alignment :	Aligned on interleaves
Interleave, duration :	40 ms (1.00 video frame)
Interleave, preload duration :	504 ms
Writing library :	LAME3.97
